<svg width="14" height="18" viewBox="0 0 14 18" fill="none" xmlns="http://www.w3.org/2000/svg">
<path d="M1.16663 3.16666C1.9455 2.40321 2.99266 1.97559 4.08329 1.97559C5.17393 1.97559 6.22109 2.40321 6.99996 3.16666C7.77883 3.9301 8.82599 4.35773 9.91663 4.35773C11.0073 4.35773 12.0544 3.9301 12.8333 3.16666V10.6667C12.0544 11.4301 11.0073 11.8577 9.91663 11.8577C8.82599 11.8577 7.77883 11.4301 6.99996 10.6667C6.22109 9.90321 5.17393 9.47559 4.08329 9.47559C2.99266 9.47559 1.9455 9.90321 1.16663 10.6667V3.16666ZM1.16663 16.5V10.6667V16.5Z" fill="#FF4D2E"/>
<path fill-rule="evenodd" clip-rule="evenodd" d="M2.16663 3.62149V8.84425C2.77069 8.60294 3.42052 8.47559 4.08329 8.47559C5.43568 8.47559 6.73416 9.00584 7.69996 9.95252C8.2919 10.5327 9.08774 10.8577 9.91663 10.8577C10.6125 10.8577 11.2851 10.6287 11.8333 10.2118V4.98907C11.2292 5.23037 10.5794 5.35773 9.91663 5.35773C8.56424 5.35773 7.26576 4.82747 6.29996 3.8808C5.70802 3.30058 4.91218 2.97559 4.08329 2.97559C3.38741 2.97559 2.71483 3.20465 2.16663 3.62149ZM2.16663 11.1215C2.71483 10.7047 3.38741 10.4756 4.08329 10.4756C4.91218 10.4756 5.70802 10.8006 6.29996 11.3808C7.26576 12.3275 8.56424 12.8577 9.91663 12.8577C11.269 12.8577 12.5675 12.3275 13.5333 11.3808C13.7252 11.1927 13.8333 10.9353 13.8333 10.6667V3.16666C13.8333 2.76401 13.5918 2.40065 13.2206 2.2447C12.8494 2.08876 12.4208 2.17066 12.1333 2.45251C11.5414 3.03273 10.7455 3.35773 9.91663 3.35773C9.08774 3.35773 8.2919 3.03273 7.69996 2.45251C6.73416 1.50584 5.43568 0.975586 4.08329 0.975586C2.7309 0.975586 1.43243 1.50584 0.466626 2.45251C0.274747 2.64059 0.166626 2.89797 0.166626 3.16666V16.5C0.166626 17.0523 0.614341 17.5 1.16663 17.5C1.71891 17.5 2.16663 17.0523 2.16663 16.5V11.1215Z" fill="#0D0A18"/>
</svg>
