<?xml version="1.0" standalone="no"?>
<!DOCTYPE svg PUBLIC "-//W3C//DTD SVG 20010904//EN"
 "http://www.w3.org/TR/2001/REC-SVG-20010904/DTD/svg10.dtd">
<svg version="1.0" xmlns="http://www.w3.org/2000/svg"
 width="138.000000pt" height="135.000000pt" viewBox="0 0 138.000000 135.000000"
 preserveAspectRatio="xMidYMid meet">
<metadata>
Created by potrace 1.16, written by Peter Selinger 2001-2019
</metadata>
<g transform="translate(0.000000,135.000000) scale(0.100000,-0.100000)"
fill="#000000" stroke="none">
<path d="M628 1330 c-131 -23 -218 -69 -314 -164 -79 -79 -122 -153 -148 -257
-39 -157 -9 -316 90 -469 16 -25 15 -29 -45 -148 -34 -67 -58 -122 -54 -122 5
0 53 31 108 68 l100 69 70 -38 c93 -50 173 -69 286 -69 77 0 109 5 176 29 91
32 191 98 240 159 46 57 99 158 119 227 25 83 23 228 -3 317 -54 181 -205 332
-383 382 -71 19 -182 27 -242 16z m227 -141 c68 -22 137 -59 142 -75 2 -7 -8
-14 -22 -18 -28 -7 -33 -27 -10 -46 12 -10 19 -10 27 -2 16 16 38 15 38 -2 0
-7 11 -21 25 -30 29 -19 69 -92 59 -108 -5 -7 -12 -5 -21 8 -12 16 -15 17 -23
4 -7 -12 -12 -12 -29 4 -11 10 -18 23 -15 28 9 14 -16 38 -41 38 -29 0 -38
-10 -24 -27 6 -7 8 -14 3 -14 -5 -1 -16 -2 -23 -3 -9 0 -20 -19 -25 -43 -6
-23 -19 -50 -28 -60 -16 -16 -19 -16 -36 0 -23 21 -27 21 -52 0 -11 -10 -20
-30 -20 -45 0 -41 -17 -34 -31 12 -18 60 -29 64 -82 34 -39 -21 -51 -24 -81
-16 -19 6 -37 8 -40 5 -9 -9 -44 58 -50 98 -3 21 -10 39 -15 39 -18 0 -21 -37
-6 -76 29 -72 38 -84 62 -84 35 0 28 -25 -18 -62 l-41 -33 6 -56 c5 -44 3 -59
-9 -69 -8 -7 -15 -24 -15 -39 0 -31 -25 -71 -44 -71 -19 0 -84 74 -100 113 -8
18 -21 56 -29 86 l-16 53 35 -6 c42 -8 44 4 7 59 -28 42 -34 98 -15 147 10 24
18 28 71 34 64 7 74 24 15 24 -42 0 -43 14 -5 67 29 40 115 103 167 124 106
41 203 44 309 8z m185 -514 c14 -14 35 -25 47 -25 11 0 27 -7 34 -16 11 -14
11 -18 -2 -28 -9 -6 -25 -31 -36 -56 -25 -57 -84 -120 -112 -120 -25 0 -25 -3
-7 48 16 45 11 54 -50 85 -53 27 -59 75 -16 120 24 26 32 28 72 23 27 -4 54
-16 70 -31z"/>
</g>
</svg>
